<svg xmlns="http://www.w3.org/2000/svg" xmlns:xlink="http://www.w3.org/1999/xlink" width="420" height="180" viewBox="0 0 420 180">
  <defs>
    <clipPath id="clip-amaggi">
      <rect width="420" height="180"/>
    </clipPath>
  </defs>
  <g id="amaggi" clip-path="url(#clip-amaggi)">
    <g id="amaggi-2" data-name="amaggi" transform="translate(-0.004 69.585)">
      <path id="Caminho_1855" data-name="Caminho 1855" d="M6512.247-248.366l-8.269,7.707c-1.89,1.762-3.732,3.577-5.676,5.279a6.23,6.23,0,0,1-4.552,1.907,6.233,6.233,0,0,1-4.51-2c-4.185-3.841-8.306-7.755-12.455-11.641-.418-.393-.748-.917-1.432-.992a4.048,4.048,0,0,0-.3,2.541c-.024,7.586-.062,15.169.021,22.753.019,1.728-.345,2.514-2.249,2.371a60.035,60.035,0,0,0-6.461-.023c-1.3.043-1.8-.324-1.8-1.731.055-10.341.025-20.682.036-31.026a4.81,4.81,0,0,1,3.29-4.78,5.109,5.109,0,0,1,5.878,1.432q8.683,8.864,17.367,17.715c2.3,2.34,3.032,2.362,5.286.087q8.621-8.733,17.2-17.513a5.274,5.274,0,0,1,6.017-1.751,5.208,5.208,0,0,1,3.52,5.433c-.014,10.084-.033,20.167.032,30.252.011,1.5-.479,1.962-1.916,1.892-2.743-.137-6.237.837-8.024-.505-1.71-1.291-.488-4.976-.524-7.62-.081-5.687-.009-11.377-.04-17.063a3.756,3.756,0,0,0-.449-2.723Z" transform="translate(-6404.158 259.845)" fill="#fff"/>
      <path id="Caminho_1856" data-name="Caminho 1856" d="M6614.122-230.914c0,2.413-.029,4.821.015,7.239.019,1.017-.284,1.555-1.359,1.776-13.218,2.757-26.49,4.8-39.885,1.317-8.724-2.267-13.807-7.71-14.641-15.109-1.422-12.586,4.86-20.712,17.869-23.015,10.632-1.88,21.094-.449,31.513,1.742,1.023.215,1.488.686,1.409,1.749a12.955,12.955,0,0,0,0,2.581c.254,1.962-.59,2.05-2.189,1.58a65.292,65.292,0,0,0-22.136-3.11c-.518.03-1.035.059-1.547.113-8.093.865-12.906,4.957-13.468,11.439-.8,9.305,2.954,15.319,11.175,17.583,7.2,1.98,14.354.882,21.458-.768a1.635,1.635,0,0,0,1.048-.685,1.64,1.64,0,0,0,.256-1.226c-.068-2.238.062-4.485-.056-6.719a2.506,2.506,0,0,1,1.758-2.735,50.53,50.53,0,0,1,6.268-2.371c1.728-.524,2.756-.4,2.547,1.892C6613.95-235.41,6614.122-233.155,6614.122-230.914Z" transform="translate(-6382.942 259.575)" fill="#fff"/>
      <path id="Caminho_1857" data-name="Caminho 1857" d="M6663.968-230.987v4.911c0,3.934,0,3.956-3.743,4.7-10.6,2.12-21.259,3.4-32.073,1.945a31.447,31.447,0,0,1-11.5-3.608c-6.155-3.491-8.838-9-8.825-15.861.01-7.2,2.656-13.107,9.252-16.714,6.168-3.373,12.929-4.01,19.777-3.958a94.427,94.427,0,0,1,19.946,2.488c.778.174,1.91.05,1.927,1.28.023,1.619.465,3.34-.247,4.821-.325.683-1.416-.028-2.12-.222a67.021,67.021,0,0,0-21.9-2.955c-.257.014-.518.033-.778.054-8.91.7-13.817,5.045-14.258,12.627-.524,8.988,4.211,15.225,12.882,16.861a46.717,46.717,0,0,0,19.708-1.13,1.785,1.785,0,0,0,1.262-.758,1.785,1.785,0,0,0,.266-1.449,22.286,22.286,0,0,1,0-4.132c.168-1.541-.917-3.547.75-4.545a22.473,22.473,0,0,1,8.941-3.178c.954-.112.7.788.711,1.319C6663.983-235.98,6663.968-233.492,6663.968-230.987Z" transform="translate(-6371.643 259.578)" fill="#fff"/>
      <path id="Caminho_1858" data-name="Caminho 1858" d="M6514.01-220.737c3.384-4.867,6.646-9.582,9.936-14.281q7.033-10.06,14.1-20.1c3.11-4.423,7.019-4.4,10.117.033q11.107,15.885,22.206,31.773c.539.77,1.035,1.569,1.835,2.787-4.257,0-8.164.033-12.067-.025-.89-.014-1.141-.98-1.57-1.591q-8.461-12.058-16.9-24.139c-1.691-2.415-1.7-2.387-3.323-.062-5.181,7.414-10.617,14.667-15.46,22.3C6520.588-220.423,6517.882-220,6514.01-220.737Z" transform="translate(-6392.938 259.838)" fill="#fff"/>
      <path id="Caminho_1859" data-name="Caminho 1859" d="M6473.58-220.677a4.064,4.064,0,0,1-.622.185c-3.787-.016-7.955.942-11.257-.336-3.243-1.255-4.541-5.586-6.7-8.562-3.787-5.231-7.419-10.574-11.121-15.861-.73-1.05-1.48-2.09-2.4-3.387-4.061,5.786-7.963,11.333-11.852,16.886-1.93,2.749-4.017,5.408-5.708,8.3-1.4,2.379-3.1,3.486-5.836,3.009a18.93,18.93,0,0,0-2.756-.02c1.865-2.675,3.467-4.965,5.07-7.256q9.549-13.656,19.107-27.3c3.23-4.584,7.051-4.525,10.271.082q11.325,16.2,22.637,32.407C6472.786-221.994,6473.113-221.415,6473.58-220.677Z" transform="translate(-6415.328 259.837)" fill="#fff"/>
      <path id="Caminho_1860" data-name="Caminho 1860" d="M6704.958-258.416c5.022,0,9.928.026,14.833-.02a2.555,2.555,0,0,1,2.332,1.269q12.286,17.572,24.625,35.1c.747,1.062.849,1.653-.757,1.639q-6.853-.053-13.7,0a2.367,2.367,0,0,1-2.118-1.188q-12.593-18-25.2-35.974C6704.9-257.7,6704.958-257.912,6704.958-258.416Z" transform="translate(-6349.615 259.834)" fill="#fff"/>
      <path id="Caminho_1861" data-name="Caminho 1861" d="M6765.57-220.436c-5.716,0-10.771-.011-15.824.009-1.048,0-1.486-.717-1.977-1.424q-12.147-17.32-24.285-34.646c-.312-.451-1.005-.88-.662-1.544s1.089-.352,1.642-.356c4.3-.026,8.605,0,12.906-.02a2.34,2.34,0,0,1,2.237.922C6748.124-245.308,6756.66-233.139,6765.57-220.436Z" transform="translate(-6345.567 259.828)" fill="#fff"/>
      <path id="Caminho_1862" data-name="Caminho 1862" d="M6730.163-220.442c-5.769,0-10.828-.011-15.891.008-1.029,0-1.509-.659-2.014-1.381q-12.213-17.462-24.434-34.918c-.282-.4-.848-.753-.623-1.32.255-.622.9-.347,1.369-.35,3.447-.02,6.893-.064,10.337.014a7.81,7.81,0,0,1,6.554,3.065C6713.6-243.9,6721.672-232.442,6730.163-220.442Z" transform="translate(-6353.648 259.829)" fill="#fff"/>
      <path id="Caminho_1863" data-name="Caminho 1863" d="M6668.2-239.441c0,5.6-.057,11.184.033,16.773.026,1.544-.312,2.143-1.978,2.022a66.806,66.806,0,0,0-6.7-.014c-1.234.037-1.866-.2-1.85-1.665q.085-15.482,0-30.967a2.319,2.319,0,0,1,1.567-2.333,42.4,42.4,0,0,1,7.267-2.574c1.6-.448,1.683.229,1.675,1.471C6668.167-250.97,6668.2-245.2,6668.2-239.441Z" transform="translate(-6360.326 259.859)" fill="#fff"/>
      <path id="Caminho_1864" data-name="Caminho 1864" d="M6690.069-244.309a10.564,10.564,0,0,1,10.419,10.024,10.415,10.415,0,0,1-3.051,7.413,10.416,10.416,0,0,1-7.412,3.052,10.245,10.245,0,0,1-7.307-3.046,10.245,10.245,0,0,1-2.957-7.345A10.309,10.309,0,0,1,6690.069-244.309Z" transform="translate(-6355.321 263.041)" fill="#fff"/>
    </g>
  </g>
</svg>
